<?xml version="1.0" encoding="UTF-8" standalone="no"?>
<!DOCTYPE svg PUBLIC "-//W3C//DTD SVG 1.1//EN"
 "http://www.w3.org/Graphics/SVG/1.1/DTD/svg11.dtd">
<!-- Generated by graphviz version 12.1.1 (0)
 -->
<!-- Title: Tree Pages: 1 -->
<svg width="5812pt" height="520pt"
 viewBox="0.00 0.00 5812.25 519.75" xmlns="http://www.w3.org/2000/svg" xmlns:xlink="http://www.w3.org/1999/xlink">
<g id="graph0" class="graph" transform="scale(1 1) rotate(0) translate(4 515.75)">
<title>Tree</title>
<polygon fill="white" stroke="none" points="-4,4 -4,-515.75 5808.25,-515.75 5808.25,4 -4,4"/>
<!-- 0 -->
<g id="node1" class="node">
<title>0</title>
<polygon fill="none" stroke="black" points="3126.5,-511.75 2709.25,-511.75 2709.25,-434.75 3126.5,-434.75 3126.5,-511.75"/>
<text text-anchor="middle" x="2917.88" y="-494.45" font-family="Helvetica,sans-Serif" font-size="14.00">G2 &lt;= 11.5</text>
<text text-anchor="middle" x="2917.88" y="-477.2" font-family="Helvetica,sans-Serif" font-size="14.00">samples = 649</text>
<text text-anchor="middle" x="2917.88" y="-459.95" font-family="Helvetica,sans-Serif" font-size="14.00">value = [15.0, 1.0, 1.0, 3.0, 10.0, 35.0, 35.0, 97.0, 104.0</text>
<text text-anchor="middle" x="2917.88" y="-442.7" font-family="Helvetica,sans-Serif" font-size="14.00">72.0, 82.0, 63.0, 49.0, 36.0, 29.0, 15.0, 2.0]</text>
</g>
<!-- 1 -->
<g id="node2" class="node">
<title>1</title>
<polygon fill="none" stroke="black" points="2388.5,-398.75 1971.25,-398.75 1971.25,-321.75 2388.5,-321.75 2388.5,-398.75"/>
<text text-anchor="middle" x="2179.88" y="-381.45" font-family="Helvetica,sans-Serif" font-size="14.00">G2 &lt;= 9.5</text>
<text text-anchor="middle" x="2179.88" y="-364.2" font-family="Helvetica,sans-Serif" font-size="14.00">samples = 331</text>
<text text-anchor="middle" x="2179.88" y="-346.95" font-family="Helvetica,sans-Serif" font-size="14.00">value = [15.0, 1.0, 1.0, 3.0, 10.0, 35.0, 34.0, 95.0, 102.0</text>
<text text-anchor="middle" x="2179.88" y="-329.7" font-family="Helvetica,sans-Serif" font-size="14.00">29.0, 4.0, 1.0, 0.0, 1.0, 0.0, 0.0, 0.0]</text>
</g>
<!-- 0&#45;&gt;1 -->
<g id="edge1" class="edge">
<title>0&#45;&gt;1</title>
<path fill="none" stroke="black" d="M2708.86,-440.81C2612.42,-426.31 2497.9,-409.08 2400.12,-394.38"/>
<polygon fill="black" stroke="black" points="2400.8,-390.94 2390.39,-392.91 2399.76,-397.86 2400.8,-390.94"/>
<text text-anchor="middle" x="2403.75" y="-408.12" font-family="Helvetica,sans-Serif" font-size="14.00">True</text>
</g>
<!-- 16 -->
<g id="node17" class="node">
<title>16</title>
<polygon fill="none" stroke="black" points="3861.25,-398.75 3466.5,-398.75 3466.5,-321.75 3861.25,-321.75 3861.25,-398.75"/>
<text text-anchor="middle" x="3663.88" y="-381.45" font-family="Helvetica,sans-Serif" font-size="14.00">G2 &lt;= 13.5</text>
<text text-anchor="middle" x="3663.88" y="-364.2" font-family="Helvetica,sans-Serif" font-size="14.00">samples = 318</text>
<text text-anchor="middle" x="3663.88" y="-346.95" font-family="Helvetica,sans-Serif" font-size="14.00">value = [0.0, 0.0, 0.0, 0.0, 0.0, 0.0, 1.0, 2.0, 2.0, 43.0</text>
<text text-anchor="middle" x="3663.88" y="-329.7" font-family="Helvetica,sans-Serif" font-size="14.00">78.0, 62.0, 49.0, 35.0, 29.0, 15.0, 2.0]</text>
</g>
<!-- 0&#45;&gt;16 -->
<g id="edge16" class="edge">
<title>0&#45;&gt;16</title>
<path fill="none" stroke="black" d="M3126.67,-441.18C3229.19,-425.93 3352.38,-407.6 3454.92,-392.34"/>
<polygon fill="black" stroke="black" points="3455.17,-395.84 3464.54,-390.91 3454.14,-388.92 3455.17,-395.84"/>
<text text-anchor="middle" x="3451.16" y="-406.1" font-family="Helvetica,sans-Serif" font-size="14.00">False</text>
</g>
<!-- 2 -->
<g id="node3" class="node">
<title>2</title>
<polygon fill="none" stroke="black" points="1296.25,-285.75 937.5,-285.75 937.5,-208.75 1296.25,-208.75 1296.25,-285.75"/>
<text text-anchor="middle" x="1116.88" y="-268.45" font-family="Helvetica,sans-Serif" font-size="14.00">G2 &lt;= 8.5</text>
<text text-anchor="middle" x="1116.88" y="-251.2" font-family="Helvetica,sans-Serif" font-size="14.00">samples = 145</text>
<text text-anchor="middle" x="1116.88" y="-233.95" font-family="Helvetica,sans-Serif" font-size="14.00">value = [15, 0, 1, 3, 10, 35, 25, 45, 10, 1, 0, 0, 0</text>
<text text-anchor="middle" x="1116.88" y="-216.7" font-family="Helvetica,sans-Serif" font-size="14.00">0, 0, 0, 0]</text>
</g>
<!-- 1&#45;&gt;2 -->
<g id="edge2" class="edge">
<title>1&#45;&gt;2</title>
<path fill="none" stroke="black" d="M1970.81,-337.42C1778.21,-317.31 1494.79,-287.71 1308.07,-268.21"/>
<polygon fill="black" stroke="black" points="1308.56,-264.75 1298.25,-267.19 1307.84,-271.71 1308.56,-264.75"/>
</g>
<!-- 9 -->
<g id="node10" class="node">
<title>9</title>
<polygon fill="none" stroke="black" points="2354.75,-285.75 2005,-285.75 2005,-208.75 2354.75,-208.75 2354.75,-285.75"/>
<text text-anchor="middle" x="2179.88" y="-268.45" font-family="Helvetica,sans-Serif" font-size="14.00">G2 &lt;= 10.5</text>
<text text-anchor="middle" x="2179.88" y="-251.2" font-family="Helvetica,sans-Serif" font-size="14.00">samples = 186</text>
<text text-anchor="middle" x="2179.88" y="-233.95" font-family="Helvetica,sans-Serif" font-size="14.00">value = [0, 1, 0, 0, 0, 0, 9, 50, 92, 28, 4, 1, 0, 1</text>
<text text-anchor="middle" x="2179.88" y="-216.7" font-family="Helvetica,sans-Serif" font-size="14.00">0, 0, 0]</text>
</g>
<!-- 1&#45;&gt;9 -->
<g id="edge9" class="edge">
<title>1&#45;&gt;9</title>
<path fill="none" stroke="black" d="M2179.88,-321.36C2179.88,-313.59 2179.88,-305.31 2179.88,-297.21"/>
<polygon fill="black" stroke="black" points="2183.38,-297.48 2179.88,-287.48 2176.38,-297.48 2183.38,-297.48"/>
</g>
<!-- 3 -->
<g id="node4" class="node">
<title>3</title>
<polygon fill="none" stroke="black" points="731.25,-172.75 372.5,-172.75 372.5,-95.75 731.25,-95.75 731.25,-172.75"/>
<text text-anchor="middle" x="551.88" y="-155.45" font-family="Helvetica,sans-Serif" font-size="14.00">absences &lt;= 1.0</text>
<text text-anchor="middle" x="551.88" y="-138.2" font-family="Helvetica,sans-Serif" font-size="14.00">samples = 73</text>
<text text-anchor="middle" x="551.88" y="-120.95" font-family="Helvetica,sans-Serif" font-size="14.00">value = [14, 0, 1, 3, 10, 26, 12, 7, 0, 0, 0, 0, 0, 0</text>
<text text-anchor="middle" x="551.88" y="-103.7" font-family="Helvetica,sans-Serif" font-size="14.00">0, 0, 0]</text>
</g>
<!-- 2&#45;&gt;3 -->
<g id="edge3" class="edge">
<title>2&#45;&gt;3</title>
<path fill="none" stroke="black" d="M937.33,-210.98C875.3,-198.79 805.59,-185.1 742.69,-172.74"/>
<polygon fill="black" stroke="black" points="743.41,-169.31 732.92,-170.82 742.06,-176.18 743.41,-169.31"/>
</g>
<!-- 6 -->
<g id="node7" class="node">
<title>6</title>
<polygon fill="none" stroke="black" points="1291.75,-172.75 942,-172.75 942,-95.75 1291.75,-95.75 1291.75,-172.75"/>
<text text-anchor="middle" x="1116.88" y="-155.45" font-family="Helvetica,sans-Serif" font-size="14.00">Fedu &lt;= 3.5</text>
<text text-anchor="middle" x="1116.88" y="-138.2" font-family="Helvetica,sans-Serif" font-size="14.00">samples = 72</text>
<text text-anchor="middle" x="1116.88" y="-120.95" font-family="Helvetica,sans-Serif" font-size="14.00">value = [1, 0, 0, 0, 0, 9, 13, 38, 10, 1, 0, 0, 0, 0</text>
<text text-anchor="middle" x="1116.88" y="-103.7" font-family="Helvetica,sans-Serif" font-size="14.00">0, 0, 0]</text>
</g>
<!-- 2&#45;&gt;6 -->
<g id="edge6" class="edge">
<title>2&#45;&gt;6</title>
<path fill="none" stroke="black" d="M1116.88,-208.36C1116.88,-200.59 1116.88,-192.31 1116.88,-184.21"/>
<polygon fill="black" stroke="black" points="1120.38,-184.48 1116.88,-174.48 1113.38,-184.48 1120.38,-184.48"/>
</g>
<!-- 4 -->
<g id="node5" class="node">
<title>4</title>
<polygon fill="none" stroke="black" points="331.75,-59.75 0,-59.75 0,0 331.75,0 331.75,-59.75"/>
<text text-anchor="middle" x="165.88" y="-42.45" font-family="Helvetica,sans-Serif" font-size="14.00">samples = 26</text>
<text text-anchor="middle" x="165.88" y="-25.2" font-family="Helvetica,sans-Serif" font-size="14.00">value = [14, 0, 0, 0, 2, 6, 2, 2, 0, 0, 0, 0, 0, 0</text>
<text text-anchor="middle" x="165.88" y="-7.95" font-family="Helvetica,sans-Serif" font-size="14.00">0, 0, 0]</text>
</g>
<!-- 3&#45;&gt;4 -->
<g id="edge4" class="edge">
<title>3&#45;&gt;4</title>
<path fill="none" stroke="black" d="M408.69,-95.27C368.78,-84.69 325.82,-73.3 287.29,-63.08"/>
<polygon fill="black" stroke="black" points="288.58,-59.8 278.02,-60.62 286.78,-66.56 288.58,-59.8"/>
</g>
<!-- 5 -->
<g id="node6" class="node">
<title>5</title>
<polygon fill="none" stroke="black" points="753.75,-59.75 350,-59.75 350,0 753.75,0 753.75,-59.75"/>
<text text-anchor="middle" x="551.88" y="-42.45" font-family="Helvetica,sans-Serif" font-size="14.00">samples = 47</text>
<text text-anchor="middle" x="551.88" y="-25.2" font-family="Helvetica,sans-Serif" font-size="14.00">value = [0.0, 0.0, 1.0, 3.0, 8.0, 20.0, 10.0, 5.0, 0.0, 0.0</text>
<text text-anchor="middle" x="551.88" y="-7.95" font-family="Helvetica,sans-Serif" font-size="14.00">0.0, 0.0, 0.0, 0.0, 0.0, 0.0, 0.0]</text>
</g>
<!-- 3&#45;&gt;5 -->
<g id="edge5" class="edge">
<title>3&#45;&gt;5</title>
<path fill="none" stroke="black" d="M551.88,-95.42C551.88,-87.7 551.88,-79.55 551.88,-71.74"/>
<polygon fill="black" stroke="black" points="555.38,-71.74 551.88,-61.74 548.38,-71.74 555.38,-71.74"/>
</g>
<!-- 7 -->
<g id="node8" class="node">
<title>7</title>
<polygon fill="none" stroke="black" points="1112.25,-59.75 771.5,-59.75 771.5,0 1112.25,0 1112.25,-59.75"/>
<text text-anchor="middle" x="941.88" y="-42.45" font-family="Helvetica,sans-Serif" font-size="14.00">samples = 58</text>
<text text-anchor="middle" x="941.88" y="-25.2" font-family="Helvetica,sans-Serif" font-size="14.00">value = [1, 0, 0, 0, 0, 2, 12, 33, 9, 1, 0, 0, 0, 0</text>
<text text-anchor="middle" x="941.88" y="-7.95" font-family="Helvetica,sans-Serif" font-size="14.00">0, 0, 0]</text>
</g>
<!-- 6&#45;&gt;7 -->
<g id="edge7" class="edge">
<title>6&#45;&gt;7</title>
<path fill="none" stroke="black" d="M1052.21,-95.42C1035.76,-85.8 1018.15,-75.5 1001.94,-66.02"/>
<polygon fill="black" stroke="black" points="1003.76,-63.02 993.36,-61 1000.23,-69.07 1003.76,-63.02"/>
</g>
<!-- 8 -->
<g id="node9" class="node">
<title>8</title>
<polygon fill="none" stroke="black" points="1453.25,-59.75 1130.5,-59.75 1130.5,0 1453.25,0 1453.25,-59.75"/>
<text text-anchor="middle" x="1291.88" y="-42.45" font-family="Helvetica,sans-Serif" font-size="14.00">samples = 14</text>
<text text-anchor="middle" x="1291.88" y="-25.2" font-family="Helvetica,sans-Serif" font-size="14.00">value = [0, 0, 0, 0, 0, 7, 1, 5, 1, 0, 0, 0, 0, 0</text>
<text text-anchor="middle" x="1291.88" y="-7.95" font-family="Helvetica,sans-Serif" font-size="14.00">0, 0, 0]</text>
</g>
<!-- 6&#45;&gt;8 -->
<g id="edge8" class="edge">
<title>6&#45;&gt;8</title>
<path fill="none" stroke="black" d="M1181.54,-95.42C1197.99,-85.8 1215.6,-75.5 1231.81,-66.02"/>
<polygon fill="black" stroke="black" points="1233.52,-69.07 1240.39,-61 1229.99,-63.02 1233.52,-69.07"/>
</g>
<!-- 10 -->
<g id="node11" class="node">
<title>10</title>
<polygon fill="none" stroke="black" points="2153.25,-172.75 1812.5,-172.75 1812.5,-95.75 2153.25,-95.75 2153.25,-172.75"/>
<text text-anchor="middle" x="1982.88" y="-155.45" font-family="Helvetica,sans-Serif" font-size="14.00">school &lt;= 0.5</text>
<text text-anchor="middle" x="1982.88" y="-138.2" font-family="Helvetica,sans-Serif" font-size="14.00">samples = 83</text>
<text text-anchor="middle" x="1982.88" y="-120.95" font-family="Helvetica,sans-Serif" font-size="14.00">value = [0, 1, 0, 0, 0, 0, 8, 37, 35, 0, 1, 0, 0, 1</text>
<text text-anchor="middle" x="1982.88" y="-103.7" font-family="Helvetica,sans-Serif" font-size="14.00">0, 0, 0]</text>
</g>
<!-- 9&#45;&gt;10 -->
<g id="edge10" class="edge">
<title>9&#45;&gt;10</title>
<path fill="none" stroke="black" d="M2112.63,-208.36C2095.61,-198.77 2077.2,-188.39 2059.74,-178.56"/>
<polygon fill="black" stroke="black" points="2061.9,-175.76 2051.47,-173.9 2058.46,-181.86 2061.9,-175.76"/>
</g>
<!-- 13 -->
<g id="node14" class="node">
<title>13</title>
<polygon fill="none" stroke="black" points="2584.25,-172.75 2171.5,-172.75 2171.5,-95.75 2584.25,-95.75 2584.25,-172.75"/>
<text text-anchor="middle" x="2377.88" y="-155.45" font-family="Helvetica,sans-Serif" font-size="14.00">age &lt;= 16.5</text>
<text text-anchor="middle" x="2377.88" y="-138.2" font-family="Helvetica,sans-Serif" font-size="14.00">samples = 103</text>
<text text-anchor="middle" x="2377.88" y="-120.95" font-family="Helvetica,sans-Serif" font-size="14.00">value = [0.0, 0.0, 0.0, 0.0, 0.0, 0.0, 1.0, 13.0, 57.0, 28.0</text>
<text text-anchor="middle" x="2377.88" y="-103.7" font-family="Helvetica,sans-Serif" font-size="14.00">3.0, 1.0, 0.0, 0.0, 0.0, 0.0, 0.0]</text>
</g>
<!-- 9&#45;&gt;13 -->
<g id="edge13" class="edge">
<title>9&#45;&gt;13</title>
<path fill="none" stroke="black" d="M2247.46,-208.36C2264.57,-198.77 2283.08,-188.39 2300.62,-178.56"/>
<polygon fill="black" stroke="black" points="2301.93,-181.84 2308.94,-173.9 2298.5,-175.73 2301.93,-181.84"/>
</g>
<!-- 11 -->
<g id="node12" class="node">
<title>11</title>
<polygon fill="none" stroke="black" points="1812.25,-59.75 1471.5,-59.75 1471.5,0 1812.25,0 1812.25,-59.75"/>
<text text-anchor="middle" x="1641.88" y="-42.45" font-family="Helvetica,sans-Serif" font-size="14.00">samples = 48</text>
<text text-anchor="middle" x="1641.88" y="-25.2" font-family="Helvetica,sans-Serif" font-size="14.00">value = [0, 1, 0, 0, 0, 0, 0, 23, 23, 0, 0, 0, 0, 1</text>
<text text-anchor="middle" x="1641.88" y="-7.95" font-family="Helvetica,sans-Serif" font-size="14.00">0, 0, 0]</text>
</g>
<!-- 10&#45;&gt;11 -->
<g id="edge11" class="edge">
<title>10&#45;&gt;11</title>
<path fill="none" stroke="black" d="M1856.38,-95.27C1821.58,-84.83 1784.15,-73.59 1750.45,-63.47"/>
<polygon fill="black" stroke="black" points="1751.68,-60.19 1741.1,-60.66 1749.67,-66.89 1751.68,-60.19"/>
</g>
<!-- 12 -->
<g id="node13" class="node">
<title>12</title>
<polygon fill="none" stroke="black" points="2171.25,-59.75 1830.5,-59.75 1830.5,0 2171.25,0 2171.25,-59.75"/>
<text text-anchor="middle" x="2000.88" y="-42.45" font-family="Helvetica,sans-Serif" font-size="14.00">samples = 35</text>
<text text-anchor="middle" x="2000.88" y="-25.2" font-family="Helvetica,sans-Serif" font-size="14.00">value = [0, 0, 0, 0, 0, 0, 8, 14, 12, 0, 1, 0, 0, 0</text>
<text text-anchor="middle" x="2000.88" y="-7.95" font-family="Helvetica,sans-Serif" font-size="14.00">0, 0, 0]</text>
</g>
<!-- 10&#45;&gt;12 -->
<g id="edge12" class="edge">
<title>10&#45;&gt;12</title>
<path fill="none" stroke="black" d="M1989.53,-95.42C1990.9,-87.61 1992.35,-79.36 1993.74,-71.46"/>
<polygon fill="black" stroke="black" points="1997.17,-72.18 1995.45,-61.72 1990.27,-70.96 1997.17,-72.18"/>
</g>
<!-- 14 -->
<g id="node15" class="node">
<title>14</title>
<polygon fill="none" stroke="black" points="2530.25,-59.75 2189.5,-59.75 2189.5,0 2530.25,0 2530.25,-59.75"/>
<text text-anchor="middle" x="2359.88" y="-42.45" font-family="Helvetica,sans-Serif" font-size="14.00">samples = 54</text>
<text text-anchor="middle" x="2359.88" y="-25.2" font-family="Helvetica,sans-Serif" font-size="14.00">value = [0, 0, 0, 0, 0, 0, 0, 4, 39, 11, 0, 0, 0, 0</text>
<text text-anchor="middle" x="2359.88" y="-7.95" font-family="Helvetica,sans-Serif" font-size="14.00">0, 0, 0]</text>
</g>
<!-- 13&#45;&gt;14 -->
<g id="edge14" class="edge">
<title>13&#45;&gt;14</title>
<path fill="none" stroke="black" d="M2371.22,-95.42C2369.85,-87.61 2368.4,-79.36 2367.01,-71.46"/>
<polygon fill="black" stroke="black" points="2370.48,-70.96 2365.3,-61.72 2363.58,-72.18 2370.48,-70.96"/>
</g>
<!-- 15 -->
<g id="node16" class="node">
<title>15</title>
<polygon fill="none" stroke="black" points="2951.75,-59.75 2548,-59.75 2548,0 2951.75,0 2951.75,-59.75"/>
<text text-anchor="middle" x="2749.88" y="-42.45" font-family="Helvetica,sans-Serif" font-size="14.00">samples = 49</text>
<text text-anchor="middle" x="2749.88" y="-25.2" font-family="Helvetica,sans-Serif" font-size="14.00">value = [0.0, 0.0, 0.0, 0.0, 0.0, 0.0, 1.0, 9.0, 18.0, 17.0</text>
<text text-anchor="middle" x="2749.88" y="-7.95" font-family="Helvetica,sans-Serif" font-size="14.00">3.0, 1.0, 0.0, 0.0, 0.0, 0.0, 0.0]</text>
</g>
<!-- 13&#45;&gt;15 -->
<g id="edge15" class="edge">
<title>13&#45;&gt;15</title>
<path fill="none" stroke="black" d="M2515.87,-95.27C2554.16,-84.74 2595.38,-73.39 2632.38,-63.21"/>
<polygon fill="black" stroke="black" points="2633.04,-66.66 2641.75,-60.63 2631.18,-59.91 2633.04,-66.66"/>
</g>
<!-- 17 -->
<g id="node18" class="node">
<title>17</title>
<polygon fill="none" stroke="black" points="3838.75,-285.75 3489,-285.75 3489,-208.75 3838.75,-208.75 3838.75,-285.75"/>
<text text-anchor="middle" x="3663.88" y="-268.45" font-family="Helvetica,sans-Serif" font-size="14.00">G2 &lt;= 12.5</text>
<text text-anchor="middle" x="3663.88" y="-251.2" font-family="Helvetica,sans-Serif" font-size="14.00">samples = 166</text>
<text text-anchor="middle" x="3663.88" y="-233.95" font-family="Helvetica,sans-Serif" font-size="14.00">value = [0, 0, 0, 0, 0, 0, 1, 2, 2, 43, 75, 40, 3, 0</text>
<text text-anchor="middle" x="3663.88" y="-216.7" font-family="Helvetica,sans-Serif" font-size="14.00">0, 0, 0]</text>
</g>
<!-- 16&#45;&gt;17 -->
<g id="edge17" class="edge">
<title>16&#45;&gt;17</title>
<path fill="none" stroke="black" d="M3663.88,-321.36C3663.88,-313.59 3663.88,-305.31 3663.88,-297.21"/>
<polygon fill="black" stroke="black" points="3667.38,-297.48 3663.88,-287.48 3660.38,-297.48 3667.38,-297.48"/>
</g>
<!-- 24 -->
<g id="node25" class="node">
<title>24</title>
<polygon fill="none" stroke="black" points="4944.75,-285.75 4595,-285.75 4595,-208.75 4944.75,-208.75 4944.75,-285.75"/>
<text text-anchor="middle" x="4769.88" y="-268.45" font-family="Helvetica,sans-Serif" font-size="14.00">G2 &lt;= 16.5</text>
<text text-anchor="middle" x="4769.88" y="-251.2" font-family="Helvetica,sans-Serif" font-size="14.00">samples = 152</text>
<text text-anchor="middle" x="4769.88" y="-233.95" font-family="Helvetica,sans-Serif" font-size="14.00">value = [0, 0, 0, 0, 0, 0, 0, 0, 0, 0, 3, 22, 46, 35</text>
<text text-anchor="middle" x="4769.88" y="-216.7" font-family="Helvetica,sans-Serif" font-size="14.00">29, 15, 2]</text>
</g>
<!-- 16&#45;&gt;24 -->
<g id="edge24" class="edge">
<title>16&#45;&gt;24</title>
<path fill="none" stroke="black" d="M3861.61,-339.41C4066.2,-318.87 4383.29,-287.05 4583.57,-266.95"/>
<polygon fill="black" stroke="black" points="4583.7,-270.45 4593.3,-265.97 4583,-263.49 4583.7,-270.45"/>
</g>
<!-- 18 -->
<g id="node19" class="node">
<title>18</title>
<polygon fill="none" stroke="black" points="3657.75,-172.75 3308,-172.75 3308,-95.75 3657.75,-95.75 3657.75,-172.75"/>
<text text-anchor="middle" x="3482.88" y="-155.45" font-family="Helvetica,sans-Serif" font-size="14.00">G1 &lt;= 11.5</text>
<text text-anchor="middle" x="3482.88" y="-138.2" font-family="Helvetica,sans-Serif" font-size="14.00">samples = 86</text>
<text text-anchor="middle" x="3482.88" y="-120.95" font-family="Helvetica,sans-Serif" font-size="14.00">value = [0, 0, 0, 0, 0, 0, 1, 0, 2, 34, 35, 12, 2, 0</text>
<text text-anchor="middle" x="3482.88" y="-103.7" font-family="Helvetica,sans-Serif" font-size="14.00">0, 0, 0]</text>
</g>
<!-- 17&#45;&gt;18 -->
<g id="edge18" class="edge">
<title>17&#45;&gt;18</title>
<path fill="none" stroke="black" d="M3602.09,-208.36C3586.74,-198.95 3570.16,-188.78 3554.39,-179.11"/>
<polygon fill="black" stroke="black" points="3556.33,-176.19 3545.98,-173.95 3552.67,-182.16 3556.33,-176.19"/>
</g>
<!-- 21 -->
<g id="node22" class="node">
<title>21</title>
<polygon fill="none" stroke="black" points="4016.25,-172.75 3675.5,-172.75 3675.5,-95.75 4016.25,-95.75 4016.25,-172.75"/>
<text text-anchor="middle" x="3845.88" y="-155.45" font-family="Helvetica,sans-Serif" font-size="14.00">freetime &lt;= 1.5</text>
<text text-anchor="middle" x="3845.88" y="-138.2" font-family="Helvetica,sans-Serif" font-size="14.00">samples = 80</text>
<text text-anchor="middle" x="3845.88" y="-120.95" font-family="Helvetica,sans-Serif" font-size="14.00">value = [0, 0, 0, 0, 0, 0, 0, 2, 0, 9, 40, 28, 1, 0</text>
<text text-anchor="middle" x="3845.88" y="-103.7" font-family="Helvetica,sans-Serif" font-size="14.00">0, 0, 0]</text>
</g>
<!-- 17&#45;&gt;21 -->
<g id="edge21" class="edge">
<title>17&#45;&gt;21</title>
<path fill="none" stroke="black" d="M3726,-208.36C3741.44,-198.95 3758.11,-188.78 3773.97,-179.11"/>
<polygon fill="black" stroke="black" points="3775.71,-182.14 3782.43,-173.95 3772.07,-176.16 3775.71,-182.14"/>
</g>
<!-- 19 -->
<g id="node20" class="node">
<title>19</title>
<polygon fill="none" stroke="black" points="3301.75,-59.75 2970,-59.75 2970,0 3301.75,0 3301.75,-59.75"/>
<text text-anchor="middle" x="3135.88" y="-42.45" font-family="Helvetica,sans-Serif" font-size="14.00">samples = 33</text>
<text text-anchor="middle" x="3135.88" y="-25.2" font-family="Helvetica,sans-Serif" font-size="14.00">value = [0, 0, 0, 0, 0, 0, 1, 0, 2, 12, 9, 9, 0, 0</text>
<text text-anchor="middle" x="3135.88" y="-7.95" font-family="Helvetica,sans-Serif" font-size="14.00">0, 0, 0]</text>
</g>
<!-- 18&#45;&gt;19 -->
<g id="edge19" class="edge">
<title>18&#45;&gt;19</title>
<path fill="none" stroke="black" d="M3354.16,-95.27C3318.74,-84.83 3280.65,-73.59 3246.36,-63.47"/>
<polygon fill="black" stroke="black" points="3247.4,-60.13 3236.82,-60.66 3245.42,-66.84 3247.4,-60.13"/>
</g>
<!-- 20 -->
<g id="node21" class="node">
<title>20</title>
<polygon fill="none" stroke="black" points="3660.25,-59.75 3319.5,-59.75 3319.5,0 3660.25,0 3660.25,-59.75"/>
<text text-anchor="middle" x="3489.88" y="-42.45" font-family="Helvetica,sans-Serif" font-size="14.00">samples = 53</text>
<text text-anchor="middle" x="3489.88" y="-25.2" font-family="Helvetica,sans-Serif" font-size="14.00">value = [0, 0, 0, 0, 0, 0, 0, 0, 0, 22, 26, 3, 2, 0</text>
<text text-anchor="middle" x="3489.88" y="-7.95" font-family="Helvetica,sans-Serif" font-size="14.00">0, 0, 0]</text>
</g>
<!-- 18&#45;&gt;20 -->
<g id="edge20" class="edge">
<title>18&#45;&gt;20</title>
<path fill="none" stroke="black" d="M3485.46,-95.42C3486,-87.61 3486.56,-79.36 3487.1,-71.46"/>
<polygon fill="black" stroke="black" points="3490.57,-71.96 3487.76,-61.74 3483.59,-71.48 3490.57,-71.96"/>
</g>
<!-- 22 -->
<g id="node23" class="node">
<title>22</title>
<polygon fill="none" stroke="black" points="4001.25,-59.75 3678.5,-59.75 3678.5,0 4001.25,0 4001.25,-59.75"/>
<text text-anchor="middle" x="3839.88" y="-42.45" font-family="Helvetica,sans-Serif" font-size="14.00">samples = 9</text>
<text text-anchor="middle" x="3839.88" y="-25.2" font-family="Helvetica,sans-Serif" font-size="14.00">value = [0, 0, 0, 0, 0, 0, 0, 0, 0, 0, 9, 0, 0, 0</text>
<text text-anchor="middle" x="3839.88" y="-7.95" font-family="Helvetica,sans-Serif" font-size="14.00">0, 0, 0]</text>
</g>
<!-- 21&#45;&gt;22 -->
<g id="edge22" class="edge">
<title>21&#45;&gt;22</title>
<path fill="none" stroke="black" d="M3843.66,-95.42C3843.2,-87.61 3842.72,-79.36 3842.25,-71.46"/>
<polygon fill="black" stroke="black" points="3845.76,-71.52 3841.68,-61.74 3838.78,-71.93 3845.76,-71.52"/>
</g>
<!-- 23 -->
<g id="node24" class="node">
<title>23</title>
<polygon fill="none" stroke="black" points="4404.75,-59.75 4019,-59.75 4019,0 4404.75,0 4404.75,-59.75"/>
<text text-anchor="middle" x="4211.88" y="-42.45" font-family="Helvetica,sans-Serif" font-size="14.00">samples = 71</text>
<text text-anchor="middle" x="4211.88" y="-25.2" font-family="Helvetica,sans-Serif" font-size="14.00">value = [0.0, 0.0, 0.0, 0.0, 0.0, 0.0, 0.0, 2.0, 0.0, 9.0</text>
<text text-anchor="middle" x="4211.88" y="-7.95" font-family="Helvetica,sans-Serif" font-size="14.00">31.0, 28.0, 1.0, 0.0, 0.0, 0.0, 0.0]</text>
</g>
<!-- 21&#45;&gt;23 -->
<g id="edge23" class="edge">
<title>21&#45;&gt;23</title>
<path fill="none" stroke="black" d="M3981.64,-95.27C4019.32,-84.74 4059.87,-73.39 4096.28,-63.21"/>
<polygon fill="black" stroke="black" points="4096.79,-66.7 4105.47,-60.64 4094.9,-59.96 4096.79,-66.7"/>
</g>
<!-- 25 -->
<g id="node26" class="node">
<title>25</title>
<polygon fill="none" stroke="black" points="4944.75,-172.75 4595,-172.75 4595,-95.75 4944.75,-95.75 4944.75,-172.75"/>
<text text-anchor="middle" x="4769.88" y="-155.45" font-family="Helvetica,sans-Serif" font-size="14.00">G2 &lt;= 14.5</text>
<text text-anchor="middle" x="4769.88" y="-138.2" font-family="Helvetica,sans-Serif" font-size="14.00">samples = 117</text>
<text text-anchor="middle" x="4769.88" y="-120.95" font-family="Helvetica,sans-Serif" font-size="14.00">value = [0, 0, 0, 0, 0, 0, 0, 0, 0, 0, 3, 22, 45, 35</text>
<text text-anchor="middle" x="4769.88" y="-103.7" font-family="Helvetica,sans-Serif" font-size="14.00">12, 0, 0]</text>
</g>
<!-- 24&#45;&gt;25 -->
<g id="edge25" class="edge">
<title>24&#45;&gt;25</title>
<path fill="none" stroke="black" d="M4769.88,-208.36C4769.88,-200.59 4769.88,-192.31 4769.88,-184.21"/>
<polygon fill="black" stroke="black" points="4773.38,-184.48 4769.88,-174.48 4766.38,-184.48 4773.38,-184.48"/>
</g>
<!-- 28 -->
<g id="node29" class="node">
<title>28</title>
<polygon fill="none" stroke="black" points="5463.25,-172.75 5140.5,-172.75 5140.5,-95.75 5463.25,-95.75 5463.25,-172.75"/>
<text text-anchor="middle" x="5301.88" y="-155.45" font-family="Helvetica,sans-Serif" font-size="14.00">G1 &lt;= 15.5</text>
<text text-anchor="middle" x="5301.88" y="-138.2" font-family="Helvetica,sans-Serif" font-size="14.00">samples = 35</text>
<text text-anchor="middle" x="5301.88" y="-120.95" font-family="Helvetica,sans-Serif" font-size="14.00">value = [0, 0, 0, 0, 0, 0, 0, 0, 0, 0, 0, 0, 1, 0</text>
<text text-anchor="middle" x="5301.88" y="-103.7" font-family="Helvetica,sans-Serif" font-size="14.00">17, 15, 2]</text>
</g>
<!-- 24&#45;&gt;28 -->
<g id="edge28" class="edge">
<title>24&#45;&gt;28</title>
<path fill="none" stroke="black" d="M4945.18,-209.67C5004.32,-197.33 5070.25,-183.58 5129.19,-171.28"/>
<polygon fill="black" stroke="black" points="5129.55,-174.78 5138.63,-169.31 5128.12,-167.93 5129.55,-174.78"/>
</g>
<!-- 26 -->
<g id="node27" class="node">
<title>26</title>
<polygon fill="none" stroke="black" points="4763.25,-59.75 4422.5,-59.75 4422.5,0 4763.25,0 4763.25,-59.75"/>
<text text-anchor="middle" x="4592.88" y="-42.45" font-family="Helvetica,sans-Serif" font-size="14.00">samples = 54</text>
<text text-anchor="middle" x="4592.88" y="-25.2" font-family="Helvetica,sans-Serif" font-size="14.00">value = [0, 0, 0, 0, 0, 0, 0, 0, 0, 0, 3, 21, 23, 5</text>
<text text-anchor="middle" x="4592.88" y="-7.95" font-family="Helvetica,sans-Serif" font-size="14.00">2, 0, 0]</text>
</g>
<!-- 25&#45;&gt;26 -->
<g id="edge26" class="edge">
<title>25&#45;&gt;26</title>
<path fill="none" stroke="black" d="M4704.22,-95.27C4687.44,-85.57 4669.49,-75.19 4653,-65.65"/>
<polygon fill="black" stroke="black" points="4655.21,-62.88 4644.8,-60.91 4651.7,-68.94 4655.21,-62.88"/>
</g>
<!-- 27 -->
<g id="node28" class="node">
<title>27</title>
<polygon fill="none" stroke="black" points="5122.25,-59.75 4781.5,-59.75 4781.5,0 5122.25,0 5122.25,-59.75"/>
<text text-anchor="middle" x="4951.88" y="-42.45" font-family="Helvetica,sans-Serif" font-size="14.00">samples = 63</text>
<text text-anchor="middle" x="4951.88" y="-25.2" font-family="Helvetica,sans-Serif" font-size="14.00">value = [0, 0, 0, 0, 0, 0, 0, 0, 0, 0, 0, 1, 22, 30</text>
<text text-anchor="middle" x="4951.88" y="-7.95" font-family="Helvetica,sans-Serif" font-size="14.00">10, 0, 0]</text>
</g>
<!-- 25&#45;&gt;27 -->
<g id="edge27" class="edge">
<title>25&#45;&gt;27</title>
<path fill="none" stroke="black" d="M4837.39,-95.27C4854.64,-85.57 4873.1,-75.19 4890.05,-65.65"/>
<polygon fill="black" stroke="black" points="4891.51,-68.84 4898.51,-60.89 4888.08,-62.74 4891.51,-68.84"/>
</g>
<!-- 29 -->
<g id="node30" class="node">
<title>29</title>
<polygon fill="none" stroke="black" points="5463.25,-59.75 5140.5,-59.75 5140.5,0 5463.25,0 5463.25,-59.75"/>
<text text-anchor="middle" x="5301.88" y="-42.45" font-family="Helvetica,sans-Serif" font-size="14.00">samples = 7</text>
<text text-anchor="middle" x="5301.88" y="-25.2" font-family="Helvetica,sans-Serif" font-size="14.00">value = [0, 0, 0, 0, 0, 0, 0, 0, 0, 0, 0, 0, 1, 0</text>
<text text-anchor="middle" x="5301.88" y="-7.95" font-family="Helvetica,sans-Serif" font-size="14.00">6, 0, 0]</text>
</g>
<!-- 28&#45;&gt;29 -->
<g id="edge29" class="edge">
<title>28&#45;&gt;29</title>
<path fill="none" stroke="black" d="M5301.88,-95.42C5301.88,-87.7 5301.88,-79.55 5301.88,-71.74"/>
<polygon fill="black" stroke="black" points="5305.38,-71.74 5301.88,-61.74 5298.38,-71.74 5305.38,-71.74"/>
</g>
<!-- 30 -->
<g id="node31" class="node">
<title>30</title>
<polygon fill="none" stroke="black" points="5804.25,-59.75 5481.5,-59.75 5481.5,0 5804.25,0 5804.25,-59.75"/>
<text text-anchor="middle" x="5642.88" y="-42.45" font-family="Helvetica,sans-Serif" font-size="14.00">samples = 28</text>
<text text-anchor="middle" x="5642.88" y="-25.2" font-family="Helvetica,sans-Serif" font-size="14.00">value = [0, 0, 0, 0, 0, 0, 0, 0, 0, 0, 0, 0, 0, 0</text>
<text text-anchor="middle" x="5642.88" y="-7.95" font-family="Helvetica,sans-Serif" font-size="14.00">11, 15, 2]</text>
</g>
<!-- 28&#45;&gt;30 -->
<g id="edge30" class="edge">
<title>28&#45;&gt;30</title>
<path fill="none" stroke="black" d="M5428.37,-95.27C5463.17,-84.83 5500.6,-73.59 5534.3,-63.47"/>
<polygon fill="black" stroke="black" points="5535.08,-66.89 5543.65,-60.66 5533.07,-60.19 5535.08,-66.89"/>
</g>
</g>
</svg>
