<?xml version="1.0" encoding="UTF-8" standalone="no"?>
<!DOCTYPE svg PUBLIC "-//W3C//DTD SVG 1.1//EN"
 "http://www.w3.org/Graphics/SVG/1.1/DTD/svg11.dtd">
<!-- Generated by graphviz version 12.1.1 (0)
 -->
<!-- Title: Tree Pages: 1 -->
<svg width="897pt" height="633pt"
 viewBox="0.00 0.00 897.00 632.75" xmlns="http://www.w3.org/2000/svg" xmlns:xlink="http://www.w3.org/1999/xlink">
<g id="graph0" class="graph" transform="scale(1 1) rotate(0) translate(4 628.75)">
<title>Tree</title>
<polygon fill="white" stroke="none" points="-4,4 -4,-628.75 893,-628.75 893,4 -4,4"/>
<!-- 0 -->
<g id="node1" class="node">
<title>0</title>
<polygon fill="none" stroke="black" points="552,-624.75 395,-624.75 395,-547.75 552,-547.75 552,-624.75"/>
<text text-anchor="middle" x="473.5" y="-607.45" font-family="Helvetica,sans-Serif" font-size="14.00">x[2] &lt;= 2.45</text>
<text text-anchor="middle" x="473.5" y="-590.2" font-family="Helvetica,sans-Serif" font-size="14.00">gini = 0.667</text>
<text text-anchor="middle" x="473.5" y="-572.95" font-family="Helvetica,sans-Serif" font-size="14.00">samples = 150</text>
<text text-anchor="middle" x="473.5" y="-555.7" font-family="Helvetica,sans-Serif" font-size="14.00">value = [50, 50, 50]</text>
</g>
<!-- 1 -->
<g id="node2" class="node">
<title>1</title>
<polygon fill="none" stroke="black" points="462,-503.12 323,-503.12 323,-443.38 462,-443.38 462,-503.12"/>
<text text-anchor="middle" x="392.5" y="-485.82" font-family="Helvetica,sans-Serif" font-size="14.00">gini = 0.0</text>
<text text-anchor="middle" x="392.5" y="-468.57" font-family="Helvetica,sans-Serif" font-size="14.00">samples = 50</text>
<text text-anchor="middle" x="392.5" y="-451.32" font-family="Helvetica,sans-Serif" font-size="14.00">value = [50, 0, 0]</text>
</g>
<!-- 0&#45;&gt;1 -->
<g id="edge1" class="edge">
<title>0&#45;&gt;1</title>
<path fill="none" stroke="black" d="M445.85,-547.36C437.69,-536.17 428.75,-523.92 420.56,-512.7"/>
<polygon fill="black" stroke="black" points="423.5,-510.8 414.78,-504.78 417.85,-514.93 423.5,-510.8"/>
<text text-anchor="middle" x="410.03" y="-523.59" font-family="Helvetica,sans-Serif" font-size="14.00">True</text>
</g>
<!-- 2 -->
<g id="node3" class="node">
<title>2</title>
<polygon fill="none" stroke="black" points="628.5,-511.75 480.5,-511.75 480.5,-434.75 628.5,-434.75 628.5,-511.75"/>
<text text-anchor="middle" x="554.5" y="-494.45" font-family="Helvetica,sans-Serif" font-size="14.00">x[3] &lt;= 1.75</text>
<text text-anchor="middle" x="554.5" y="-477.2" font-family="Helvetica,sans-Serif" font-size="14.00">gini = 0.5</text>
<text text-anchor="middle" x="554.5" y="-459.95" font-family="Helvetica,sans-Serif" font-size="14.00">samples = 100</text>
<text text-anchor="middle" x="554.5" y="-442.7" font-family="Helvetica,sans-Serif" font-size="14.00">value = [0, 50, 50]</text>
</g>
<!-- 0&#45;&gt;2 -->
<g id="edge2" class="edge">
<title>0&#45;&gt;2</title>
<path fill="none" stroke="black" d="M501.15,-547.36C507.27,-538.97 513.84,-529.97 520.19,-521.26"/>
<polygon fill="black" stroke="black" points="523.02,-523.33 526.08,-513.19 517.36,-519.21 523.02,-523.33"/>
<text text-anchor="middle" x="530.83" y="-531.99" font-family="Helvetica,sans-Serif" font-size="14.00">False</text>
</g>
<!-- 3 -->
<g id="node4" class="node">
<title>3</title>
<polygon fill="none" stroke="black" points="512,-398.75 373,-398.75 373,-321.75 512,-321.75 512,-398.75"/>
<text text-anchor="middle" x="442.5" y="-381.45" font-family="Helvetica,sans-Serif" font-size="14.00">x[2] &lt;= 4.95</text>
<text text-anchor="middle" x="442.5" y="-364.2" font-family="Helvetica,sans-Serif" font-size="14.00">gini = 0.168</text>
<text text-anchor="middle" x="442.5" y="-346.95" font-family="Helvetica,sans-Serif" font-size="14.00">samples = 54</text>
<text text-anchor="middle" x="442.5" y="-329.7" font-family="Helvetica,sans-Serif" font-size="14.00">value = [0, 49, 5]</text>
</g>
<!-- 2&#45;&gt;3 -->
<g id="edge3" class="edge">
<title>2&#45;&gt;3</title>
<path fill="none" stroke="black" d="M516.27,-434.36C507.35,-425.52 497.76,-416.01 488.54,-406.88"/>
<polygon fill="black" stroke="black" points="491.2,-404.59 481.63,-400.03 486.27,-409.56 491.2,-404.59"/>
</g>
<!-- 12 -->
<g id="node13" class="node">
<title>12</title>
<polygon fill="none" stroke="black" points="736,-398.75 597,-398.75 597,-321.75 736,-321.75 736,-398.75"/>
<text text-anchor="middle" x="666.5" y="-381.45" font-family="Helvetica,sans-Serif" font-size="14.00">x[2] &lt;= 4.85</text>
<text text-anchor="middle" x="666.5" y="-364.2" font-family="Helvetica,sans-Serif" font-size="14.00">gini = 0.043</text>
<text text-anchor="middle" x="666.5" y="-346.95" font-family="Helvetica,sans-Serif" font-size="14.00">samples = 46</text>
<text text-anchor="middle" x="666.5" y="-329.7" font-family="Helvetica,sans-Serif" font-size="14.00">value = [0, 1, 45]</text>
</g>
<!-- 2&#45;&gt;12 -->
<g id="edge12" class="edge">
<title>2&#45;&gt;12</title>
<path fill="none" stroke="black" d="M592.73,-434.36C601.65,-425.52 611.24,-416.01 620.46,-406.88"/>
<polygon fill="black" stroke="black" points="622.73,-409.56 627.37,-400.03 617.8,-404.59 622.73,-409.56"/>
</g>
<!-- 4 -->
<g id="node5" class="node">
<title>4</title>
<polygon fill="none" stroke="black" points="292,-285.75 153,-285.75 153,-208.75 292,-208.75 292,-285.75"/>
<text text-anchor="middle" x="222.5" y="-268.45" font-family="Helvetica,sans-Serif" font-size="14.00">x[3] &lt;= 1.65</text>
<text text-anchor="middle" x="222.5" y="-251.2" font-family="Helvetica,sans-Serif" font-size="14.00">gini = 0.041</text>
<text text-anchor="middle" x="222.5" y="-233.95" font-family="Helvetica,sans-Serif" font-size="14.00">samples = 48</text>
<text text-anchor="middle" x="222.5" y="-216.7" font-family="Helvetica,sans-Serif" font-size="14.00">value = [0, 47, 1]</text>
</g>
<!-- 3&#45;&gt;4 -->
<g id="edge4" class="edge">
<title>3&#45;&gt;4</title>
<path fill="none" stroke="black" d="M372.59,-323.98C350.23,-312.7 325.31,-300.12 302.3,-288.51"/>
<polygon fill="black" stroke="black" points="304.09,-285.49 293.58,-284.11 300.93,-291.74 304.09,-285.49"/>
</g>
<!-- 7 -->
<g id="node8" class="node">
<title>7</title>
<polygon fill="none" stroke="black" points="507.5,-285.75 377.5,-285.75 377.5,-208.75 507.5,-208.75 507.5,-285.75"/>
<text text-anchor="middle" x="442.5" y="-268.45" font-family="Helvetica,sans-Serif" font-size="14.00">x[3] &lt;= 1.55</text>
<text text-anchor="middle" x="442.5" y="-251.2" font-family="Helvetica,sans-Serif" font-size="14.00">gini = 0.444</text>
<text text-anchor="middle" x="442.5" y="-233.95" font-family="Helvetica,sans-Serif" font-size="14.00">samples = 6</text>
<text text-anchor="middle" x="442.5" y="-216.7" font-family="Helvetica,sans-Serif" font-size="14.00">value = [0, 2, 4]</text>
</g>
<!-- 3&#45;&gt;7 -->
<g id="edge7" class="edge">
<title>3&#45;&gt;7</title>
<path fill="none" stroke="black" d="M442.5,-321.36C442.5,-313.59 442.5,-305.31 442.5,-297.21"/>
<polygon fill="black" stroke="black" points="446,-297.48 442.5,-287.48 439,-297.48 446,-297.48"/>
</g>
<!-- 5 -->
<g id="node6" class="node">
<title>5</title>
<polygon fill="none" stroke="black" points="139,-164.12 0,-164.12 0,-104.38 139,-104.38 139,-164.12"/>
<text text-anchor="middle" x="69.5" y="-146.82" font-family="Helvetica,sans-Serif" font-size="14.00">gini = 0.0</text>
<text text-anchor="middle" x="69.5" y="-129.57" font-family="Helvetica,sans-Serif" font-size="14.00">samples = 47</text>
<text text-anchor="middle" x="69.5" y="-112.33" font-family="Helvetica,sans-Serif" font-size="14.00">value = [0, 47, 0]</text>
</g>
<!-- 4&#45;&gt;5 -->
<g id="edge5" class="edge">
<title>4&#45;&gt;5</title>
<path fill="none" stroke="black" d="M170.27,-208.36C153.62,-196.28 135.25,-182.95 118.81,-171.03"/>
<polygon fill="black" stroke="black" points="121.28,-168.49 111.13,-165.45 117.17,-174.16 121.28,-168.49"/>
</g>
<!-- 6 -->
<g id="node7" class="node">
<title>6</title>
<polygon fill="none" stroke="black" points="287.5,-164.12 157.5,-164.12 157.5,-104.38 287.5,-104.38 287.5,-164.12"/>
<text text-anchor="middle" x="222.5" y="-146.82" font-family="Helvetica,sans-Serif" font-size="14.00">gini = 0.0</text>
<text text-anchor="middle" x="222.5" y="-129.57" font-family="Helvetica,sans-Serif" font-size="14.00">samples = 1</text>
<text text-anchor="middle" x="222.5" y="-112.33" font-family="Helvetica,sans-Serif" font-size="14.00">value = [0, 0, 1]</text>
</g>
<!-- 4&#45;&gt;6 -->
<g id="edge6" class="edge">
<title>4&#45;&gt;6</title>
<path fill="none" stroke="black" d="M222.5,-208.36C222.5,-197.96 222.5,-186.63 222.5,-176.07"/>
<polygon fill="black" stroke="black" points="226,-176.07 222.5,-166.07 219,-176.07 226,-176.07"/>
</g>
<!-- 8 -->
<g id="node9" class="node">
<title>8</title>
<polygon fill="none" stroke="black" points="435.5,-164.12 305.5,-164.12 305.5,-104.38 435.5,-104.38 435.5,-164.12"/>
<text text-anchor="middle" x="370.5" y="-146.82" font-family="Helvetica,sans-Serif" font-size="14.00">gini = 0.0</text>
<text text-anchor="middle" x="370.5" y="-129.57" font-family="Helvetica,sans-Serif" font-size="14.00">samples = 3</text>
<text text-anchor="middle" x="370.5" y="-112.33" font-family="Helvetica,sans-Serif" font-size="14.00">value = [0, 0, 3]</text>
</g>
<!-- 7&#45;&gt;8 -->
<g id="edge8" class="edge">
<title>7&#45;&gt;8</title>
<path fill="none" stroke="black" d="M417.92,-208.36C410.74,-197.29 402.88,-185.17 395.66,-174.04"/>
<polygon fill="black" stroke="black" points="398.71,-172.32 390.34,-165.83 392.84,-176.13 398.71,-172.32"/>
</g>
<!-- 9 -->
<g id="node10" class="node">
<title>9</title>
<polygon fill="none" stroke="black" points="583.5,-172.75 453.5,-172.75 453.5,-95.75 583.5,-95.75 583.5,-172.75"/>
<text text-anchor="middle" x="518.5" y="-155.45" font-family="Helvetica,sans-Serif" font-size="14.00">x[0] &lt;= 6.95</text>
<text text-anchor="middle" x="518.5" y="-138.2" font-family="Helvetica,sans-Serif" font-size="14.00">gini = 0.444</text>
<text text-anchor="middle" x="518.5" y="-120.95" font-family="Helvetica,sans-Serif" font-size="14.00">samples = 3</text>
<text text-anchor="middle" x="518.5" y="-103.7" font-family="Helvetica,sans-Serif" font-size="14.00">value = [0, 2, 1]</text>
</g>
<!-- 7&#45;&gt;9 -->
<g id="edge9" class="edge">
<title>7&#45;&gt;9</title>
<path fill="none" stroke="black" d="M468.44,-208.36C474.19,-199.97 480.35,-190.97 486.31,-182.26"/>
<polygon fill="black" stroke="black" points="489.06,-184.45 491.82,-174.22 483.28,-180.49 489.06,-184.45"/>
</g>
<!-- 10 -->
<g id="node11" class="node">
<title>10</title>
<polygon fill="none" stroke="black" points="509.5,-59.75 379.5,-59.75 379.5,0 509.5,0 509.5,-59.75"/>
<text text-anchor="middle" x="444.5" y="-42.45" font-family="Helvetica,sans-Serif" font-size="14.00">gini = 0.0</text>
<text text-anchor="middle" x="444.5" y="-25.2" font-family="Helvetica,sans-Serif" font-size="14.00">samples = 2</text>
<text text-anchor="middle" x="444.5" y="-7.95" font-family="Helvetica,sans-Serif" font-size="14.00">value = [0, 2, 0]</text>
</g>
<!-- 9&#45;&gt;10 -->
<g id="edge10" class="edge">
<title>9&#45;&gt;10</title>
<path fill="none" stroke="black" d="M491.16,-95.42C485.05,-86.98 478.57,-78.01 472.45,-69.54"/>
<polygon fill="black" stroke="black" points="475.3,-67.51 466.61,-61.46 469.63,-71.61 475.3,-67.51"/>
</g>
<!-- 11 -->
<g id="node12" class="node">
<title>11</title>
<polygon fill="none" stroke="black" points="657.5,-59.75 527.5,-59.75 527.5,0 657.5,0 657.5,-59.75"/>
<text text-anchor="middle" x="592.5" y="-42.45" font-family="Helvetica,sans-Serif" font-size="14.00">gini = 0.0</text>
<text text-anchor="middle" x="592.5" y="-25.2" font-family="Helvetica,sans-Serif" font-size="14.00">samples = 1</text>
<text text-anchor="middle" x="592.5" y="-7.95" font-family="Helvetica,sans-Serif" font-size="14.00">value = [0, 0, 1]</text>
</g>
<!-- 9&#45;&gt;11 -->
<g id="edge11" class="edge">
<title>9&#45;&gt;11</title>
<path fill="none" stroke="black" d="M545.84,-95.42C551.95,-86.98 558.43,-78.01 564.55,-69.54"/>
<polygon fill="black" stroke="black" points="567.37,-71.61 570.39,-61.46 561.7,-67.51 567.37,-71.61"/>
</g>
<!-- 13 -->
<g id="node14" class="node">
<title>13</title>
<polygon fill="none" stroke="black" points="731.5,-285.75 601.5,-285.75 601.5,-208.75 731.5,-208.75 731.5,-285.75"/>
<text text-anchor="middle" x="666.5" y="-268.45" font-family="Helvetica,sans-Serif" font-size="14.00">x[1] &lt;= 3.1</text>
<text text-anchor="middle" x="666.5" y="-251.2" font-family="Helvetica,sans-Serif" font-size="14.00">gini = 0.444</text>
<text text-anchor="middle" x="666.5" y="-233.95" font-family="Helvetica,sans-Serif" font-size="14.00">samples = 3</text>
<text text-anchor="middle" x="666.5" y="-216.7" font-family="Helvetica,sans-Serif" font-size="14.00">value = [0, 1, 2]</text>
</g>
<!-- 12&#45;&gt;13 -->
<g id="edge13" class="edge">
<title>12&#45;&gt;13</title>
<path fill="none" stroke="black" d="M666.5,-321.36C666.5,-313.59 666.5,-305.31 666.5,-297.21"/>
<polygon fill="black" stroke="black" points="670,-297.48 666.5,-287.48 663,-297.48 670,-297.48"/>
</g>
<!-- 16 -->
<g id="node17" class="node">
<title>16</title>
<polygon fill="none" stroke="black" points="889,-277.12 750,-277.12 750,-217.38 889,-217.38 889,-277.12"/>
<text text-anchor="middle" x="819.5" y="-259.82" font-family="Helvetica,sans-Serif" font-size="14.00">gini = 0.0</text>
<text text-anchor="middle" x="819.5" y="-242.57" font-family="Helvetica,sans-Serif" font-size="14.00">samples = 43</text>
<text text-anchor="middle" x="819.5" y="-225.32" font-family="Helvetica,sans-Serif" font-size="14.00">value = [0, 0, 43]</text>
</g>
<!-- 12&#45;&gt;16 -->
<g id="edge16" class="edge">
<title>12&#45;&gt;16</title>
<path fill="none" stroke="black" d="M718.73,-321.36C735.38,-309.28 753.75,-295.95 770.19,-284.03"/>
<polygon fill="black" stroke="black" points="771.83,-287.16 777.87,-278.45 767.72,-281.49 771.83,-287.16"/>
</g>
<!-- 14 -->
<g id="node15" class="node">
<title>14</title>
<polygon fill="none" stroke="black" points="731.5,-164.12 601.5,-164.12 601.5,-104.38 731.5,-104.38 731.5,-164.12"/>
<text text-anchor="middle" x="666.5" y="-146.82" font-family="Helvetica,sans-Serif" font-size="14.00">gini = 0.0</text>
<text text-anchor="middle" x="666.5" y="-129.57" font-family="Helvetica,sans-Serif" font-size="14.00">samples = 2</text>
<text text-anchor="middle" x="666.5" y="-112.33" font-family="Helvetica,sans-Serif" font-size="14.00">value = [0, 0, 2]</text>
</g>
<!-- 13&#45;&gt;14 -->
<g id="edge14" class="edge">
<title>13&#45;&gt;14</title>
<path fill="none" stroke="black" d="M666.5,-208.36C666.5,-197.96 666.5,-186.63 666.5,-176.07"/>
<polygon fill="black" stroke="black" points="670,-176.07 666.5,-166.07 663,-176.07 670,-176.07"/>
</g>
<!-- 15 -->
<g id="node16" class="node">
<title>15</title>
<polygon fill="none" stroke="black" points="879.5,-164.12 749.5,-164.12 749.5,-104.38 879.5,-104.38 879.5,-164.12"/>
<text text-anchor="middle" x="814.5" y="-146.82" font-family="Helvetica,sans-Serif" font-size="14.00">gini = 0.0</text>
<text text-anchor="middle" x="814.5" y="-129.57" font-family="Helvetica,sans-Serif" font-size="14.00">samples = 1</text>
<text text-anchor="middle" x="814.5" y="-112.33" font-family="Helvetica,sans-Serif" font-size="14.00">value = [0, 1, 0]</text>
</g>
<!-- 13&#45;&gt;15 -->
<g id="edge15" class="edge">
<title>13&#45;&gt;15</title>
<path fill="none" stroke="black" d="M717.02,-208.36C732.98,-196.39 750.57,-183.2 766.35,-171.36"/>
<polygon fill="black" stroke="black" points="768.31,-174.27 774.21,-165.47 764.11,-168.67 768.31,-174.27"/>
</g>
</g>
</svg>
